<svg width="33" height="50" viewBox="0 0 33 50" fill="none" xmlns="http://www.w3.org/2000/svg">
<path d="M19.4524 19.4846H12.8095C11.3828 19.4846 10.2262 18.326 10.2262 16.8967C10.2262 15.4675 11.3828 14.3089 12.8095 14.3089H19.4524C20.8791 14.3089 22.0357 15.4675 22.0357 16.8967C22.0357 18.326 20.8791 19.4846 19.4524 19.4846ZM19.4524 19.4846V23.1681M21.2976 32.7935C21.2976 34.043 19.2399 34.642 15.775 34.642C12.31 34.642 10.2262 34.043 10.2262 32.7935M21.2976 32.7935C21.2976 31.5439 19.2399 30.945 15.775 30.945C12.31 30.945 10.2262 31.5439 10.2262 32.7935M21.2976 32.7935V43.4387C21.2976 43.9774 21.0979 44.4969 20.7372 44.8965C20.6399 45.0043 20.5321 45.102 20.4154 45.1882L20.2105 45.3395C19.9936 45.4997 19.7599 45.6356 19.5135 45.7448L19.4196 45.7864C18.9493 45.9948 18.4408 46.1024 17.9266 46.1024H15.775H13.2242C12.6539 46.1024 12.0986 45.9195 11.6395 45.5805L11.1084 45.1882C10.9917 45.102 10.8839 45.0043 10.7866 44.8965C10.4259 44.4969 10.2262 43.9774 10.2262 43.4387V32.7935M21.2976 41.6661L21.0769 41.897C20.9104 42.0712 20.7269 42.2285 20.5293 42.3663C20.2576 42.5558 19.9612 42.7072 19.6486 42.8163L19.4131 42.8984L18.9293 43.0249C18.6249 43.1046 18.3116 43.1449 17.997 43.1449H13.4414C13.0283 43.1449 12.6181 43.0754 12.228 42.9393L11.8752 42.8163C11.5625 42.7072 11.2662 42.5558 10.9945 42.3663C10.7969 42.2285 10.6134 42.0712 10.4468 41.897L10.2262 41.6661M21.2976 38.7086L21.0769 38.9394C20.9104 39.1137 20.7269 39.2709 20.5293 39.4088C20.2576 39.5983 19.9612 39.7497 19.6486 39.8587L19.4131 39.9409L18.9293 40.0674C18.6249 40.147 18.3116 40.1873 17.997 40.1873H13.4414C13.0283 40.1873 12.6181 40.1179 12.228 39.9818L11.8752 39.8587C11.5625 39.7497 11.2662 39.5983 10.9945 39.4088C10.7969 39.2709 10.6134 39.1137 10.4468 38.9394L10.2262 38.7086M21.2976 35.751L21.0769 35.9819C20.9104 36.1562 20.7269 36.3134 20.5293 36.4513C20.2576 36.6408 19.9612 36.7922 19.6486 36.9012L19.4131 36.9833L18.9293 37.1099C18.6249 37.1895 18.3116 37.2298 17.997 37.2298H13.4414C13.0283 37.2298 12.6181 37.1603 12.228 37.0243L11.8752 36.9012C11.5625 36.7922 11.2662 36.6408 10.9945 36.4513C10.7969 36.3134 10.6134 36.1562 10.4468 35.9819L10.2262 35.751M13.1786 19.4846V23.2396M19.0833 23.1054C26.4141 24.2647 32 30.2743 32 37.5136C32 45.5826 24.3354 49.5 15.775 49.5C7.21455 49.5 1 45.5826 1 37.5136C1 30.3963 6.39927 24.4675 13.5476 23.1681M12.4405 10.2423C12.4405 11.6715 11.2839 12.8301 9.85712 12.8301C8.43038 12.8301 7.27379 11.6715 7.27379 10.2423C7.27379 8.81307 8.43038 7.65445 9.85712 7.65445C11.2839 7.65445 12.4405 8.81307 12.4405 10.2423ZM19.0833 4.32723C19.0833 6.1648 17.5963 7.65445 15.7619 7.65445C13.9275 7.65445 12.4405 6.1648 12.4405 4.32723C12.4405 2.48965 13.9275 1 15.7619 1C17.5963 1 19.0833 2.48965 19.0833 4.32723Z" stroke="white"/>
</svg>
